<?xml version="1.0" encoding="UTF-8"?>
<svg version="1.1" xmlns="http://www.w3.org/2000/svg" width="1024" height="1024">
<path d="M0 0 C1.49321777 0.33837891 1.49321777 0.33837891 3.01660156 0.68359375 C37.72470112 8.62328179 70.58917291 21.44690367 101 40 C101.93811523 40.5686377 102.87623047 41.13727539 103.84277344 41.72314453 C124.74650797 54.47392438 143.2554738 69.16533997 161 86 C161.75958008 86.71881348 162.51916016 87.43762695 163.30175781 88.17822266 C174.83322968 99.17094782 185.06861926 110.46748004 194.23974609 123.5 C196.01066786 126.01515102 197.80934281 128.50845297 199.61328125 131 C207.72848487 142.29488995 215.10426796 153.92511218 222 166 C222.42732422 166.73412109 222.85464844 167.46824219 223.29492188 168.22460938 C241.02009977 198.8911028 250.36020457 233.67349335 256.5 268.3125 C256.62437439 269.01275299 256.74874878 269.71300598 256.87689209 270.43447876 C257.66618101 274.94589296 258.35190909 279.46576729 259 284 C259.20278564 285.19197998 259.40557129 286.38395996 259.61450195 287.61206055 C260.71724688 295.67678257 260.71724688 295.67678257 258.82763672 299.1628418 C257.07241314 301.08511887 255.26016081 302.61440484 253.1875 304.1875 C251.79289731 305.35774009 250.39967118 306.52962258 249.0078125 307.703125 C248.32106445 308.26064453 247.63431641 308.81816406 246.92675781 309.39257812 C244.29079907 311.59165978 241.94849569 313.9692286 239.5625 316.4375 C236.21085969 319.83324084 232.75395824 322.99207205 229.12890625 326.08984375 C226.48520889 328.46189515 223.99359097 330.97281529 221.5 333.5 C217.83821242 337.20600304 214.10396203 340.7537392 210.14453125 344.140625 C207.46772834 346.46149601 204.85741911 348.85195698 202.25 351.25 C201.73888672 351.71994385 201.22777344 352.1898877 200.70117188 352.67407227 C199.65393123 353.63747482 198.60689508 354.6010997 197.56005859 355.56494141 C196.04839654 356.95548124 194.53450333 358.34353657 193.01953125 359.73046875 C192.53210449 360.17672607 192.04467773 360.6229834 191.54248047 361.08276367 C190.55072322 361.99059294 189.55886015 362.89830662 188.56689453 363.8059082 C185.98352752 366.17225231 183.4089531 368.5472716 180.84765625 370.9375 C179.77377224 371.93785947 178.69954935 372.93785525 177.625 373.9375 C177.07956543 374.44498779 176.53413086 374.95247559 175.97216797 375.4753418 C173.33550173 377.91040793 170.67819427 380.2968416 167.91015625 382.58203125 C158.6287922 390.25154173 150.18962282 398.67323889 141.78979492 407.28417969 C136.27594238 412.90858012 130.64387022 418.08784055 124.47143555 423.00512695 C121.15692493 425.68050641 118.07621467 428.55771576 115 431.5 C110.09412633 436.1267267 105.05485615 440.46629884 99.7890625 444.68359375 C95.36407814 448.3586858 91.19469435 452.3017747 86.98828125 456.22265625 C83.39836788 459.56884458 79.72890727 462.80963692 76 466 C75.03707031 466.83015625 74.07414062 467.6603125 73.08203125 468.515625 C4.90904216 527 4.90904216 527 -26 527 C-23.59546327 519.28407219 -20.49421529 511.95753124 -17.25 504.5625 C-16.67834942 503.25126142 -16.10698582 501.93989769 -15.53588867 500.62841797 C-11.8002838 492.06166747 -8.01914725 483.51513264 -4.2355957 474.96948242 C1.86065222 461.19865805 7.81906157 447.38875225 13.56396484 433.46679688 C21.59805654 414.07133579 29.74856276 394.72298254 38.1875 375.5 C38.47262451 374.85046356 38.75774902 374.20092712 39.05151367 373.53170776 C40.47053322 370.3004191 41.89102314 367.06977863 43.31201172 363.83935547 C50.30724157 347.93281768 57.27204624 332.01184579 63.875 315.9375 C64.31038086 314.90246338 64.74576172 313.86742676 65.19433594 312.80102539 C65.58137695 311.84446045 65.96841797 310.88789551 66.3671875 309.90234375 C66.70862793 309.07210693 67.05006836 308.24187012 67.40185547 307.38647461 C68.14057829 304.4391213 68.08107241 302.84654393 67 300 C64.86253451 298.15856651 64.86253451 298.15856651 62.05859375 296.72265625 C60.48984497 295.84009155 60.48984497 295.84009155 58.8894043 294.93969727 C57.75027588 294.32022217 56.61114746 293.70074707 55.4375 293.0625 C54.24874681 292.40016391 53.06101489 291.73599183 51.87426758 291.07006836 C49.4344747 289.70209557 46.99090736 288.34123961 44.54492188 286.984375 C39.3717678 284.10271796 34.28522782 281.07483305 29.1875 278.0625 C20.43790574 272.92658413 11.58747359 267.99314494 2.6875 263.125 C-10.3429339 255.99534369 -23.12650185 248.51097243 -35.86767578 240.87548828 C-57.67394635 227.81892005 -79.6850334 215.16718569 -102 203 C-91.47507948 191.97145853 -70.57820812 190.89023548 -56.23876953 189.921875 C-54.98761919 189.83724503 -53.73646885 189.75261505 -52.44740486 189.66542053 C-36.55098909 188.65228801 -20.63230332 188.58404686 -4.70931005 188.45921707 C-0.28091273 188.4221155 4.14735881 188.37357351 8.57565308 188.32592773 C21.66298856 188.18718506 34.7504887 188.06726564 47.8380127 187.94787598 C58.07913471 187.85413317 68.32017517 187.75579021 78.56112754 187.64490223 C83.80074004 187.58867838 89.04033045 187.54133426 94.28008866 187.50105286 C97.53656113 187.47411656 100.79291613 187.43931178 104.0492897 187.40243149 C105.54756681 187.38704665 107.04588097 187.37485297 108.54421234 187.36624527 C121.00255674 187.64422232 121.00255674 187.64422232 133 185 C134.3296816 183.01543526 134.3296816 183.01543526 135 181 C134.44441406 180.80148437 133.88882813 180.60296875 133.31640625 180.3984375 C130.06933643 178.43814915 128.16236088 175.62211013 125.9375 172.625 C120.65434437 165.7164631 115.02423689 159.27240318 109 153 C108.5138623 152.49194824 108.02772461 151.98389648 107.52685547 151.46044922 C100.75283779 144.42173531 93.7099736 138.02040934 86 132 C85.03964844 131.22269531 84.07929687 130.44539062 83.08984375 129.64453125 C73.87886335 122.3199969 64.08854848 116.04522425 54 110 C53.20706543 109.52385254 52.41413086 109.04770508 51.59716797 108.55712891 C26.10705577 93.44278281 -1.91853178 84.21096224 -31 79 C-31.80405273 78.84901855 -32.60810547 78.69803711 -33.43652344 78.54248047 C-59.72534882 73.76971487 -88.78179644 73.92325237 -115 79 C-115.9369873 79.16628906 -116.87397461 79.33257812 -117.83935547 79.50390625 C-171.07243237 88.95822677 -225.79503699 117.32058808 -259.69140625 160.34082031 C-260.60357899 161.49737366 -261.52063346 162.65008636 -262.44140625 163.79980469 C-275.10728847 179.64835425 -286.60795305 196.56219605 -295.09667969 215.03710938 C-296.03735982 217.08118188 -297.0067061 219.11025377 -297.9765625 221.140625 C-315.36664574 258.18851544 -321.00436426 297.37974278 -320 338 C-319.98453125 338.80679199 -319.9690625 339.61358398 -319.953125 340.44482422 C-319.19094996 373.7979214 -307.64835912 408.80297093 -292 438 C-291.62649414 438.71220703 -291.25298828 439.42441406 -290.86816406 440.15820312 C-284.76951339 451.7664591 -277.88210081 462.52404458 -270 473 C-269.29230469 473.95326172 -269.29230469 473.95326172 -268.5703125 474.92578125 C-261.55775391 484.28231661 -253.61523263 492.6672341 -245.375 500.9375 C-244.89380707 501.42236877 -244.41261414 501.90723755 -243.9168396 502.40679932 C-237.2823617 509.0677218 -230.36591301 515.16368998 -223 521 C-221.92719597 521.88006246 -220.85533324 522.76127611 -219.78515625 523.64453125 C-196.78972429 541.95509758 -169.73219112 553.84083769 -142 563 C-141.29552734 563.23299805 -140.59105469 563.46599609 -139.86523438 563.70605469 C-129.48284121 567.06635406 -118.7362802 569.1330083 -108 571 C-107.31615234 571.12149414 -106.63230469 571.24298828 -105.92773438 571.36816406 C-43.70253597 581.84326028 23.6000814 562.91671538 74.4375 526.875 C83.23727958 520.50912225 91.50513345 513.57219963 99.5234375 506.25390625 C101.20252205 504.7257804 102.89580823 503.21314142 104.6015625 501.71484375 C109.12606774 497.73027191 113.33117482 493.70333898 117.22265625 489.09765625 C119.26637586 486.68561794 121.37822417 484.34361411 123.5 482 C126.20359243 479.00869419 128.8730624 475.99617966 131.5 472.9375 C137.75588446 465.81036223 144.34665124 459.56628031 151.92480469 453.86499023 C158.16718033 449.16159613 164.0854956 444.10598624 170 439 C170.59039063 438.49065918 171.18078125 437.98131836 171.7890625 437.45654297 C174.92158839 434.75140692 178.04881264 432.0402735 181.171875 429.32421875 C183.71744544 427.11082055 186.26965883 424.90550895 188.828125 422.70703125 C195.5181921 416.95088071 202.11085241 411.11641367 208.57202148 405.10400391 C212.01171261 401.90361891 215.49918404 398.77429139 219.05078125 395.69921875 C223.08095661 392.18593962 227.03146612 388.58253666 231 385 C233.49623632 382.75260967 235.99322859 380.50608153 238.4921875 378.26171875 C240.19110717 376.72951549 241.88364716 375.19021392 243.5703125 373.64453125 C248.52022501 369.12603313 253.53933996 364.88957629 259 361 C256.26573863 402.95676929 242.29004917 445.04435234 222.96630859 482.13671875 C222.01054611 483.97966451 221.07649758 485.83242915 220.14453125 487.6875 C210.48753482 506.64243137 197.60654088 523.72507752 184 540 C183.58476074 540.50692383 183.16952148 541.01384766 182.74169922 541.53613281 C171.41221753 555.36495144 158.90870609 568.8715138 144.76171875 579.85546875 C142.63520138 581.5067531 140.57325743 583.1876722 138.51953125 584.92578125 C117.2992858 602.78416148 93.13834044 617.33049936 68 629 C67.24380371 629.35126953 66.48760742 629.70253906 65.70849609 630.06445312 C36.73742589 643.34652049 5.57995732 652.62657094 -26 657 C-27.26038086 657.17901855 -28.52076172 657.35803711 -29.81933594 657.54248047 C-42.2385485 659.17352533 -54.59795014 659.33920413 -67.11083984 659.31567383 C-70.59895414 659.31252352 -74.08620905 659.33603134 -77.57421875 659.36132812 C-97.1584677 659.41748256 -116.40805741 657.75178009 -135.5 653.25 C-136.61834229 652.99178467 -137.73668457 652.73356934 -138.88891602 652.4675293 C-189.65009331 640.50369991 -235.13636801 618.25560725 -276 586 C-276.98355469 585.23171875 -277.96710938 584.4634375 -278.98046875 583.671875 C-295.50220013 570.49353682 -311.89348181 555.25091867 -324.94921875 538.60546875 C-327.11746217 535.85076711 -329.39674569 533.21592624 -331.6875 530.5625 C-347.49797813 511.59977701 -359.48458432 490.46013361 -370.67529297 468.56884766 C-371.76145985 466.46257271 -372.87007195 464.37374158 -374.00390625 462.29296875 C-392.48661352 427.51460309 -402.49049959 382.39250477 -404 343 C-404.04914551 341.74928711 -404.09829102 340.49857422 -404.14892578 339.20996094 C-405.34423928 305.00440542 -400.97664839 271.24638082 -393 238 C-392.76700195 237.0198291 -392.53400391 236.0396582 -392.29394531 235.02978516 C-381.20254882 189.31101755 -358.41523378 145.16029048 -327.5078125 109.77880859 C-325.56507675 107.48690888 -323.70292311 105.13371536 -321.82421875 102.7890625 C-317.07910303 96.97510295 -311.9516034 91.65460395 -306.625 86.375 C-305.75617188 85.4984375 -304.88734375 84.621875 -303.9921875 83.71875 C-297.97247157 77.71684388 -291.64357152 72.29543157 -285 67 C-283.77971742 65.98778263 -282.56186099 64.97262508 -281.34765625 63.953125 C-232.09320545 23.156211 -167.41559702 -1.26901647 -104 -7 C-102.76636719 -7.11214844 -101.53273438 -7.22429687 -100.26171875 -7.33984375 C-66.5403358 -9.81387486 -32.9556835 -7.63252336 0 0 Z " fill="#0A88DC" transform="translate(579,178)"/>
<path d="M0 0 C2.23466871 2.23466871 2.39703432 3.03155679 2.96484375 6.04296875 C3.12315674 6.86112061 3.28146973 7.67927246 3.44458008 8.5222168 C3.60724365 9.40176025 3.76990723 10.28130371 3.9375 11.1875 C4.11369873 12.09733643 4.28989746 13.00717285 4.47143555 13.94458008 C5.23345161 17.8857674 5.96950977 21.83037617 6.6796875 25.78125 C17.81699429 85.73021001 51.23376188 141.8871856 100 179 C101.40958984 180.15242188 101.40958984 180.15242188 102.84765625 181.328125 C125.87620726 199.84412809 153.130761 211.79557463 181 221 C181.70447266 221.23299805 182.40894531 221.46599609 183.13476562 221.70605469 C193.51715879 225.06635406 204.2637198 227.1330083 215 229 C216.02577148 229.18224121 216.02577148 229.18224121 217.07226562 229.36816406 C279.29746403 239.84326028 346.6000814 220.91671538 397.4375 184.875 C406.23727958 178.50912225 414.50513345 171.57219963 422.5234375 164.25390625 C424.20252205 162.7257804 425.89580823 161.21314142 427.6015625 159.71484375 C432.12606774 155.73027191 436.33117482 151.70333898 440.22265625 147.09765625 C442.26637586 144.68561794 444.37822417 142.34361411 446.5 140 C449.20359243 137.00869419 451.8730624 133.99617966 454.5 130.9375 C460.75588446 123.81036223 467.34665124 117.56628031 474.92480469 111.86499023 C481.16718033 107.16159613 487.0854956 102.10598624 493 97 C493.59039063 96.49065918 494.18078125 95.98131836 494.7890625 95.45654297 C497.92158839 92.75140692 501.04881264 90.0402735 504.171875 87.32421875 C506.71744544 85.11082055 509.26965883 82.90550895 511.828125 80.70703125 C518.5181921 74.95088071 525.11085241 69.11641367 531.57202148 63.10400391 C535.01171261 59.90361891 538.49918404 56.77429139 542.05078125 53.69921875 C546.08095661 50.18593962 550.03146612 46.58253666 554 43 C556.49623632 40.75260967 558.99322859 38.50608153 561.4921875 36.26171875 C563.19110717 34.72951549 564.88364716 33.19021392 566.5703125 31.64453125 C571.52022501 27.12603313 576.53933996 22.88957629 582 19 C579.26573863 60.95676929 565.29004917 103.04435234 545.96630859 140.13671875 C545.01054611 141.97966451 544.07649758 143.83242915 543.14453125 145.6875 C533.48753482 164.64243137 520.60654088 181.72507752 507 198 C506.58476074 198.50692383 506.16952148 199.01384766 505.74169922 199.53613281 C494.41221753 213.36495144 481.90870609 226.8715138 467.76171875 237.85546875 C465.63520138 239.5067531 463.57325743 241.1876722 461.51953125 242.92578125 C440.2992858 260.78416148 416.13834044 275.33049936 391 287 C390.24380371 287.35126953 389.48760742 287.70253906 388.70849609 288.06445312 C359.73742589 301.34652049 328.57995732 310.62657094 297 315 C295.73961914 315.17901855 294.47923828 315.35803711 293.18066406 315.54248047 C280.7614515 317.17352533 268.40204986 317.33920413 255.88916016 317.31567383 C252.40104586 317.31252352 248.91379095 317.33603134 245.42578125 317.36132812 C225.8415323 317.41748256 206.59194259 315.75178009 187.5 311.25 C186.38165771 310.99178467 185.26331543 310.73356934 184.11108398 310.4675293 C133.34990669 298.50369991 87.86363199 276.25560725 47 244 C46.01644531 243.23171875 45.03289062 242.4634375 44.01953125 241.671875 C27.51600225 228.50805571 11.00291581 213.26276572 -1.96875 196.57421875 C-3.40510674 194.75391281 -4.91364494 192.98949713 -6.46875 191.26953125 C-11.98075753 185.08596585 -14.50039826 180.33206771 -15 172 C-15.99 171.67 -16.98 171.34 -18 171 C-19.42226115 168.1554777 -19.37761737 165.33587776 -19.62109375 162.19140625 C-19.8967824 159.71626355 -19.8967824 159.71626355 -22 157 C-22.41846983 155.15927975 -22.7670714 153.30192753 -23.0625 151.4375 C-23.63329904 147.59053568 -23.63329904 147.59053568 -25 144 C-25.83205421 139.69289584 -26.3937969 135.34372868 -27 131 C-27.18949219 129.77796875 -27.37898437 128.5559375 -27.57421875 127.296875 C-29.07810333 116.71204273 -29.1883578 106.17041901 -29.1875 95.5 C-29.18840637 94.74996704 -29.18931274 93.99993408 -29.19024658 93.22717285 C-29.18995254 91.07843205 -29.18103803 88.92994774 -29.16796875 86.78125 C-29.16047607 85.52376953 -29.1529834 84.26628906 -29.14526367 82.97070312 C-29 80 -29 80 -28 78 C-27.84595647 76.39073676 -27.72960621 74.77778136 -27.6328125 73.1640625 C-27.08630662 66.68406419 -25.60229511 60.63120135 -23.875 54.375 C-23.56224121 53.23490479 -23.24948242 52.09480957 -22.92724609 50.92016602 C-18.68820691 35.88379469 -12.47470568 22.47091974 -4.97460938 8.81103516 C-4.04551995 7.08458591 -3.1696626 5.32980298 -2.296875 3.57421875 C-1 1 -1 1 0 0 Z " fill="#192429" transform="translate(256,520)"/>
<path d="M0 0 C13.39923331 11.41491937 23.91704387 28.93283485 25.34863281 46.68945312 C26.5570648 70.81249175 21.12702882 92.25287783 5.12109375 110.8671875 C-6.23377316 123.01610105 -22.54855827 131.9392929 -39.36743164 133.02832031 C-61.33877106 133.38193408 -80.05960593 130.09272348 -96.87890625 114.8671875 C-97.53890625 114.29871094 -98.19890625 113.73023438 -98.87890625 113.14453125 C-110.71723866 102.2541903 -120.47954085 84.72627845 -121.1796875 68.4921875 C-121.19924692 66.95063997 -121.20259602 65.40881851 -121.19140625 63.8671875 C-121.18294678 62.6282373 -121.18294678 62.6282373 -121.17431641 61.36425781 C-120.76450922 40.22469911 -113.54033502 20.52307646 -99.02734375 4.92578125 C-72.79808131 -20.20662112 -28.61991269 -21.20281184 0 0 Z " fill="#0A88DB" transform="translate(542.87890625,444.1328125)"/>
<path d="M0 0 C0.33 0 0.66 0 1 0 C1.02578125 0.59167969 1.0515625 1.18335938 1.078125 1.79296875 C1.47476981 7.31895213 2.44893986 9.67214546 6 14 C6.62886498 16.69803364 6.81159265 19.22099164 7 22 C2.8019271 18.28632013 -2.72305774 12.70156976 -3.16015625 6.859375 C-2.875 4.9375 -2.875 4.9375 -2 2 C-1.34 2 -0.68 2 0 2 C0 1.34 0 0.68 0 0 Z " fill="#0B68B4" transform="translate(236,680)"/>
<path d="M0 0 C0.99 0.33 1.98 0.66 3 1 C2.67 1.99 2.34 2.98 2 4 C4.7819368 7.27286682 8.27954067 8.96427697 12 11 C11.01 11.495 11.01 11.495 10 12 C7.38838269 10.75874818 4.89498214 9.4689476 2.375 8.0625 C1.66859375 7.67642578 0.9621875 7.29035156 0.234375 6.89257812 C-1.51433651 5.93551304 -3.25768432 4.96865969 -5 4 C-3.36587557 2.29159719 -2.13093906 1.06546953 0 0 Z " fill="#0A79D7" transform="translate(482,377)"/>
<path d="M0 0 C0.99 0.33 1.98 0.66 3 1 C4.33599181 4.00598158 5.14345053 6.09147996 4.625 9.375 C4.41875 9.91125 4.2125 10.4475 4 11 C1.17438373 7.20307814 -0.56638908 4.81430721 0 0 Z " fill="#0C5799" transform="translate(238,691)"/>
<path d="M0 0 C2.86299506 2.86299506 2.99421225 4.65852284 3.0625 8.6875 C3.041875 9.780625 3.02125 10.87375 3 12 C1.23537317 8.91190305 1 7.76687864 1 4 C0.34 4 -0.32 4 -1 4 C-0.67 4.99 -0.34 5.98 0 7 C-0.99 7.495 -0.99 7.495 -2 8 C-2.125 5.125 -2.125 5.125 -2 2 C-1.34 1.34 -0.68 0.68 0 0 Z " fill="#10151D" transform="translate(256,520)"/>
<path d="M0 0 C0 1.98 0 3.96 0 6 C-0.66 5.34 -1.32 4.68 -2 4 C-4.97 6.475 -4.97 6.475 -8 9 C-8 6 -8 6 -6.50390625 4.39453125 C-5.86324219 3.87246094 -5.22257813 3.35039063 -4.5625 2.8125 C-3.92441406 2.28269531 -3.28632812 1.75289062 -2.62890625 1.20703125 C-1 0 -1 0 0 0 Z " fill="#262B2E" transform="translate(838,539)"/>
</svg>
